<svg xmlns="http://www.w3.org/2000/svg" xmlns:xlink="http://www.w3.org/1999/xlink" width="394" height="316" viewBox="0 0 394 316">
  <defs>
    <clipPath id="clip-path">
      <rect id="Retângulo_46" data-name="Retângulo 46" width="394" height="316" transform="translate(801 2342)" fill="#fff" stroke="#707070" stroke-width="1"/>
    </clipPath>
  </defs>
  <g id="suporte-svg" transform="translate(-801 -2342)" clip-path="url(#clip-path)">
    <g id="customer-service-woman" transform="translate(774.136 2276.109)">
      <path id="Caminho_95" data-name="Caminho 95" d="M402.955,247.369a179.091,179.091,0,1,0-342.243,73.92h326.3a178.778,178.778,0,0,0,15.939-73.92Z" fill="#f0f2ff"/>
      <line id="Linha_59" data-name="Linha 59" x2="349.227" transform="translate(49.25 321.289)" fill="none" stroke="#4550e5" stroke-linecap="round" stroke-linejoin="round" stroke-width="4.477"/>
      <line id="Linha_60" data-name="Linha 60" x2="11.193" transform="translate(29.102 321.289)" fill="none" stroke="#4550e5" stroke-linecap="round" stroke-linejoin="round" stroke-width="4.477"/>
      <line id="Linha_61" data-name="Linha 61" x2="11.193" transform="translate(407.432 321.289)" fill="none" stroke="#4550e5" stroke-linecap="round" stroke-linejoin="round" stroke-width="4.477"/>
      <ellipse id="Elipse_13" data-name="Elipse 13" cx="80.591" cy="6.716" rx="80.591" ry="6.716" transform="translate(109.425 366.017)" fill="#f0f2ff"/>
      <path id="Caminho_96" data-name="Caminho 96" d="M283.859,224.535a26.864,26.864,0,0,0,26.864-26.864V143.944a53.727,53.727,0,0,0-57.309-53.727,54.891,54.891,0,0,0-50.145,55.563v51.892a26.864,26.864,0,0,0,26.864,26.864Z" fill="#fff"/>
      <path id="Caminho_97" data-name="Caminho 97" d="M283.859,224.535a26.864,26.864,0,0,0,26.864-26.864V143.944a53.727,53.727,0,0,0-57.309-53.727,54.891,54.891,0,0,0-50.145,55.563v51.892a26.864,26.864,0,0,0,26.864,26.864Z" fill="none" stroke="#4550e5" stroke-linecap="round" stroke-linejoin="round" stroke-width="4.477"/>
      <path id="Caminho_98" data-name="Caminho 98" d="M257,216.476a69.845,69.845,0,0,0-69.845,70.069v18.8c0,35.415-12.581,40.3-26.505,40.3h-11.1v24.177h11.1c19.521,0,53.369-16.252,53.369-48.355h85.964c0,20.416-15.044,24.177-26.505,24.177h-11.1v24.177h11.1c22.028-.224,53.369-4.925,53.369-48.578v-34.7A69.8,69.8,0,0,0,257,216.476Z" fill="#fff"/>
      <path id="Caminho_99" data-name="Caminho 99" d="M257,216.476a69.845,69.845,0,0,0-69.845,70.069v18.8c0,35.415-12.581,40.3-26.505,40.3h-11.1v24.177h11.1c19.521,0,53.369-16.252,53.369-48.355h85.964c0,20.416-15.044,24.177-26.505,24.177h-11.1v24.177h11.1c22.028-.224,53.369-4.925,53.369-48.578v-34.7A69.8,69.8,0,0,0,257,216.476Z" fill="none" stroke="#4550e5" stroke-linecap="round" stroke-linejoin="round" stroke-width="4.477"/>
      <line id="Linha_62" data-name="Linha 62" y2="32.236" transform="translate(214.014 289.008)" fill="none" stroke="#4550e5" stroke-linecap="round" stroke-linejoin="round" stroke-width="4.477"/>
      <line id="Linha_63" data-name="Linha 63" y2="32.236" transform="translate(299.977 289.008)" fill="none" stroke="#4550e5" stroke-linecap="round" stroke-linejoin="round" stroke-width="4.477"/>
      <path id="Caminho_100" data-name="Caminho 100" d="M262.368,367.136h-8.059a10.745,10.745,0,1,1,0-21.491h8.059Z" fill="#fff" stroke="#4550e5" stroke-linecap="round" stroke-linejoin="round" stroke-width="4.477"/>
      <path id="Caminho_101" data-name="Caminho 101" d="M149.541,367.136h-8.059a10.745,10.745,0,0,1,0-21.491h8.059Z" fill="#fff" stroke="#4550e5" stroke-linecap="round" stroke-linejoin="round" stroke-width="4.477"/>
      <line id="Linha_64" data-name="Linha 64" y2="69.845" transform="translate(256.995 251.399)" fill="none" stroke="#4550e5" stroke-linecap="round" stroke-linejoin="round" stroke-width="4.477"/>
      <path id="Caminho_102" data-name="Caminho 102" d="M273.114,219.162,257,251.4l-16.118-32.236V205.731h32.236Z" fill="#fff"/>
      <path id="Caminho_103" data-name="Caminho 103" d="M273.114,219.162,257,251.4l-16.118-32.236V205.731h32.236Z" fill="none" stroke="#4550e5" stroke-linecap="round" stroke-linejoin="round" stroke-width="4.477"/>
      <path id="Caminho_104" data-name="Caminho 104" d="M231.833,243.922a4.445,4.445,0,0,0,7.164-.134l8.059-11.193a4.477,4.477,0,0,0,0-5.328l-6.626-8.955a69.845,69.845,0,0,0-21.088,8.955Z" fill="#fff" stroke="#4550e5" stroke-linecap="round" stroke-linejoin="round" stroke-width="4.477"/>
      <path id="Caminho_105" data-name="Caminho 105" d="M282.068,243.922a4.477,4.477,0,0,1-7.164,0l-7.925-11.1a4.477,4.477,0,0,1,0-5.328l6.626-8.955a70.07,70.07,0,0,1,21.133,8.955Z" fill="#fff" stroke="#4550e5" stroke-linecap="round" stroke-linejoin="round" stroke-width="4.477"/>
      <path id="Caminho_106" data-name="Caminho 106" d="M302.664,157.376V142.915A48.265,48.265,0,0,1,241.5,132.08a27.311,27.311,0,0,1-24.8,20.148,23.819,23.819,0,0,1-5.373-.627v6a8.1,8.1,0,0,0-8.059,8.059v2.686a8.1,8.1,0,0,0,8.059,8.059h.761a45.623,45.623,0,0,0,89.859,0h.716a8.059,8.059,0,0,0,8.059-8.059v-2.686a8.059,8.059,0,0,0-8.059-8.283Z" fill="#fff" stroke="#4550e5" stroke-linecap="round" stroke-linejoin="round" stroke-width="4.477"/>
      <path id="Caminho_107" data-name="Caminho 107" d="M235.5,176.181a5.373,5.373,0,1,1-5.373-5.373,5.373,5.373,0,0,1,5.373,5.373Z" fill="#d6daff"/>
      <path id="Caminho_108" data-name="Caminho 108" d="M289.232,176.181a5.373,5.373,0,1,1-5.373-5.373A5.373,5.373,0,0,1,289.232,176.181Z" fill="#d6daff"/>
      <path id="Caminho_109" data-name="Caminho 109" d="M243.564,186.926a19.476,19.476,0,0,0,26.864,0" fill="none" stroke="#4550e5" stroke-linecap="round" stroke-linejoin="round" stroke-width="4.477"/>
      <path id="Caminho_110" data-name="Caminho 110" d="M281.173,162.749a7.3,7.3,0,0,0-13.432,0" fill="none" stroke="#4550e5" stroke-linecap="round" stroke-linejoin="round" stroke-width="4.477"/>
      <path id="Caminho_111" data-name="Caminho 111" d="M246.25,161.853a7.3,7.3,0,0,0-13.432,0" fill="none" stroke="#4550e5" stroke-linecap="round" stroke-linejoin="round" stroke-width="4.477"/>
      <path id="Caminho_112" data-name="Caminho 112" d="M192.523,176.181v8.059A24.177,24.177,0,0,0,216.7,208.417h13.432" fill="none" stroke="#4550e5" stroke-linecap="round" stroke-linejoin="round" stroke-width="4.477"/>
      <path id="Caminho_113" data-name="Caminho 113" d="M197.9,154.69h10.745v26.864H197.9a5.373,5.373,0,0,1-5.373-5.373V160.062A5.373,5.373,0,0,1,197.9,154.69Z" fill="#fff" stroke="#4550e5" stroke-linecap="round" stroke-linejoin="round" stroke-width="4.477"/>
      <path id="Caminho_114" data-name="Caminho 114" d="M203.268,176.181a5.373,5.373,0,0,0,10.745,0V160.062a5.373,5.373,0,0,0-10.745,0Z" fill="#d6daff" stroke="#4550e5" stroke-linecap="round" stroke-linejoin="round" stroke-width="4.477"/>
      <path id="Caminho_115" data-name="Caminho 115" d="M310.723,154.69h10.745v26.864H310.723a5.373,5.373,0,0,1-5.373-5.373V160.062A5.373,5.373,0,0,1,310.723,154.69Z" transform="translate(626.818 336.243) rotate(180)" fill="#fff" stroke="#4550e5" stroke-linecap="round" stroke-linejoin="round" stroke-width="4.477"/>
      <path id="Caminho_116" data-name="Caminho 116" d="M310.723,176.181a5.373,5.373,0,1,1-10.745,0V160.062a5.373,5.373,0,1,1,10.745,0Z" fill="#d6daff" stroke="#4550e5" stroke-linecap="round" stroke-linejoin="round" stroke-width="4.477"/>
      <path id="Caminho_117" data-name="Caminho 117" d="M246.25,208.417a8.059,8.059,0,1,1-8.059-8.059,8.059,8.059,0,0,1,8.059,8.059Z" fill="#d6daff" stroke="#4550e5" stroke-linecap="round" stroke-linejoin="round" stroke-width="4.477"/>
      <path id="Caminho_118" data-name="Caminho 118" d="M192.523,168.122V143.944a64.473,64.473,0,1,1,128.945,0v24.177" fill="none" stroke="#4550e5" stroke-linecap="round" stroke-linejoin="round" stroke-width="4.477"/>
      <path id="Caminho_119" data-name="Caminho 119" d="M206.537,359.3h9.984l-21.357-66.308a4.477,4.477,0,0,0-4.477-3.089H184.15Z" fill="#d6daff" stroke="#4550e5" stroke-linejoin="round" stroke-width="4.477"/>
      <path id="Caminho_120" data-name="Caminho 120" d="M119.23,359.3h87.307L184.15,289.9H102.977a4.477,4.477,0,0,0-4.253,5.865Z" fill="#d6daff"/>
      <path id="Caminho_121" data-name="Caminho 121" d="M119.23,359.3h91.784v11.193h-82.83a8.955,8.955,0,0,1-8.955-8.955Z" fill="#d6daff" stroke="#4550e5" stroke-linejoin="round" stroke-width="4.477"/>
      <path id="Caminho_122" data-name="Caminho 122" d="M211.014,359.3h40.3a2.239,2.239,0,0,1,2.239,2.239,8.955,8.955,0,0,1-8.955,8.955h-33.58Z" fill="#d6daff" stroke="#4550e5" stroke-linejoin="round" stroke-width="4.477"/>
      <path id="Caminho_123" data-name="Caminho 123" d="M156.7,322.364a5.1,5.1,0,0,1,2.239-4.477,5.059,5.059,0,0,0-4.03-2.149c-1.7,0-3.358.985-4.209.985s-2.194-.985-3.627-.94a5.373,5.373,0,0,0-4.477,2.731,11.551,11.551,0,0,0,1.388,11.1c.94,1.343,2.06,2.821,3.492,2.776s1.925-.9,3.582-.9,2.194.9,3.627.851,2.462-1.343,3.4-2.686a14.463,14.463,0,0,0,1.522-3.134,4.746,4.746,0,0,1-2.91-4.164Z" fill="#fff" stroke="#4550e5" stroke-linejoin="round" stroke-width="4.477"/>
      <line id="Linha_65" data-name="Linha 65" y1="2.015" x2="2.015" transform="translate(152.809 308.036)" fill="none" stroke="#4550e5" stroke-linecap="round" stroke-linejoin="round" stroke-width="4.477"/>
      <path id="Caminho_124" data-name="Caminho 124" d="M119.23,359.3h87.307L184.15,289.9H102.977a4.477,4.477,0,0,0-4.253,5.865Z" fill="none" stroke="#4550e5" stroke-linejoin="round" stroke-width="4.477"/>
    </g>
  </g>
</svg>
