<svg id="twitter" xmlns="http://www.w3.org/2000/svg" width="50" height="50" viewBox="0 0 50 50">
  <rect id="Retângulo_53" data-name="Retângulo 53" width="50" height="50" rx="7.5" fill="#45d"/>
  <path id="Caminho_126" data-name="Caminho 126" d="M42.676,14.844a7.031,7.031,0,0,1-3.906,1.172,7.031,7.031,0,0,0,3.125-3.906A7.031,7.031,0,0,1,37.5,13.77a7.031,7.031,0,0,0-11.914,6.348,19.531,19.531,0,0,1-14.16-7.227,7.031,7.031,0,0,0,2.148,9.18,7.031,7.031,0,0,1-3.125-.684,7.031,7.031,0,0,0,5.469,6.738,7.031,7.031,0,0,1-3.125.1,7.031,7.031,0,0,0,6.543,4.883A19.531,19.531,0,0,1,9.082,35.938a19.531,19.531,0,0,0,30.176-17.48,19.531,19.531,0,0,0,3.418-3.613"/>
</svg>
