<svg id="youtube" xmlns="http://www.w3.org/2000/svg" width="50" height="50" viewBox="0 0 50 50">
  <path id="Caminho_129" data-name="Caminho 129" d="M7.5,0h35A7.5,7.5,0,0,1,50,7.5v35A7.5,7.5,0,0,1,42.5,50H7.5A7.5,7.5,0,0,1,0,42.5V7.5A7.5,7.5,0,0,1,7.5,0Z" fill="#45d"/>
  <path id="Caminho_127" data-name="Caminho 127" d="M41.7,16.5a4.439,4.439,0,0,0-3.125-3.027c-3.32-.879-23.34-.977-27.148,0A4.439,4.439,0,0,0,8.3,16.5c-.879,3.711-.977,13.184,0,16.992a4.439,4.439,0,0,0,3.125,3.027c3.516.977,23.535.977,27.148,0A4.439,4.439,0,0,0,41.7,33.5c.879-3.516.879-13.379,0-16.992"/>
  <path id="Caminho_128" data-name="Caminho 128" d="M21.484,19.824V30.176L30.566,25" fill="#45d"/>
</svg>
